<?xml version="1.0" standalone="no"?>
<!DOCTYPE svg PUBLIC "-//W3C//DTD SVG 20010904//EN"
 "http://www.w3.org/TR/2001/REC-SVG-20010904/DTD/svg10.dtd">
<svg version="1.0" xmlns="http://www.w3.org/2000/svg"
 width="88.000000pt" height="88.000000pt" viewBox="0 0 88.000000 88.000000"
 preserveAspectRatio="xMidYMid meet">
<metadata>
Created by potrace 1.14, written by Peter Selinger 2001-2017
</metadata>
<g transform="translate(0.000000,88.000000) scale(0.100000,-0.100000)"
fill="#000000" stroke="none">
<path d="M545 844 c-93 -48 -137 -150 -160 -364 -4 -36 -13 -79 -20 -97 l-13
-32 -51 20 c-68 25 -171 25 -228 0 -129 -59 -43 -191 109 -167 46 8 93 29 125
58 34 32 50 18 55 -50 5 -78 39 -131 103 -162 41 -20 58 -22 141 -18 158 9
254 74 254 173 0 76 -59 125 -151 125 -61 0 -133 -31 -151 -63 -6 -12 -12 -23
-13 -25 -7 -9 -105 50 -105 63 0 8 16 33 36 55 28 30 52 45 95 58 59 17 73 34
48 59 -8 8 -2 24 24 58 20 25 43 66 53 91 18 46 27 51 68 32 l26 -11 -25 -23
c-30 -28 -31 -45 -5 -69 18 -17 21 -17 45 -1 52 34 17 110 -57 125 -32 6 -33
9 -39 62 -3 30 -12 64 -19 76 -27 43 -91 55 -145 27z m90 -18 c28 -28 44 -108
26 -130 -7 -8 -27 -17 -47 -20 -41 -8 -99 -63 -106 -101 -5 -25 2 -71 16 -106
5 -12 1 -18 -15 -22 -13 -4 -20 -9 -17 -12 3 -4 15 -2 27 4 11 6 22 7 25 3 3
-5 -18 -20 -46 -33 -28 -13 -64 -37 -80 -52 -34 -35 -56 -27 -30 11 27 39 30
51 63 215 29 148 51 208 85 238 40 35 68 36 99 5z m19 -193 c-9 -38 -44 -112
-56 -119 -15 -9 -28 16 -28 52 0 35 46 94 74 94 13 0 15 -6 10 -27z m-394
-309 c59 -26 60 -27 43 -47 -49 -55 -190 -78 -242 -39 -45 33 -38 91 14 113
33 15 120 2 185 -27z m495 -18 c50 -21 69 -56 63 -117 -9 -87 -77 -139 -185
-139 -99 0 -183 59 -200 140 -5 30 -4 33 13 26 64 -25 140 -12 173 31 23 28
27 43 12 43 -5 0 -12 -9 -16 -19 -6 -19 -33 -36 -43 -26 -17 16 80 74 126 75
12 0 38 -6 57 -14z"/>
</g>
</svg>
